<mxfile host="app.diagrams.net" modified="2023-10-04T18:29:32.640Z" agent="Mozilla/5.0 (Windows NT 10.0; Win64; x64) AppleWebKit/537.36 (KHTML, like Gecko) Chrome/117.0.0.0 Safari/537.36" etag="01ZaENfCtAw6PG7NUQrb" version="22.0.2" type="device">
  <diagram id="R2lEEEUBdFMjLlhIrx00" name="Page-1">
    <mxGraphModel dx="921" dy="772" grid="1" gridSize="10" guides="1" tooltips="1" connect="1" arrows="1" fold="1" page="1" pageScale="1" pageWidth="850" pageHeight="1100" math="0" shadow="0" extFonts="Permanent Marker^https://fonts.googleapis.com/css?family=Permanent+Marker">
      <root>
        <mxCell id="0" />
        <mxCell id="1" parent="0" />
        <mxCell id="9F8LSmwIcYbkRrsHRq0f-1" value="&lt;font style=&quot;font-size: 24px;&quot;&gt;Empleado&lt;/font&gt;" style="rounded=0;whiteSpace=wrap;html=1;" vertex="1" parent="1">
          <mxGeometry x="620" y="340" width="200" height="100" as="geometry" />
        </mxCell>
        <mxCell id="9F8LSmwIcYbkRrsHRq0f-2" value="&lt;font style=&quot;font-size: 24px;&quot;&gt;Departamento&lt;/font&gt;" style="rounded=0;whiteSpace=wrap;html=1;" vertex="1" parent="1">
          <mxGeometry x="50" y="340" width="190" height="100" as="geometry" />
        </mxCell>
        <mxCell id="9F8LSmwIcYbkRrsHRq0f-3" value="&lt;font style=&quot;font-size: 24px;&quot;&gt;Asignado&lt;/font&gt;" style="rhombus;whiteSpace=wrap;html=1;" vertex="1" parent="1">
          <mxGeometry x="350" y="325" width="150" height="130" as="geometry" />
        </mxCell>
        <mxCell id="9F8LSmwIcYbkRrsHRq0f-4" value="" style="endArrow=none;html=1;rounded=0;entryX=0;entryY=0.5;entryDx=0;entryDy=0;exitX=1;exitY=0.5;exitDx=0;exitDy=0;" edge="1" parent="1" source="9F8LSmwIcYbkRrsHRq0f-2" target="9F8LSmwIcYbkRrsHRq0f-3">
          <mxGeometry width="50" height="50" relative="1" as="geometry">
            <mxPoint x="250" y="520" as="sourcePoint" />
            <mxPoint x="300" y="470" as="targetPoint" />
          </mxGeometry>
        </mxCell>
        <mxCell id="9F8LSmwIcYbkRrsHRq0f-5" value="" style="endArrow=none;html=1;rounded=0;exitX=1;exitY=0.5;exitDx=0;exitDy=0;entryX=0;entryY=0.5;entryDx=0;entryDy=0;" edge="1" parent="1" source="9F8LSmwIcYbkRrsHRq0f-3" target="9F8LSmwIcYbkRrsHRq0f-1">
          <mxGeometry width="50" height="50" relative="1" as="geometry">
            <mxPoint x="540" y="510" as="sourcePoint" />
            <mxPoint x="590" y="460" as="targetPoint" />
          </mxGeometry>
        </mxCell>
        <mxCell id="9F8LSmwIcYbkRrsHRq0f-7" value="&lt;font style=&quot;font-size: 24px;&quot;&gt;Manda&lt;/font&gt;" style="rhombus;whiteSpace=wrap;html=1;" vertex="1" parent="1">
          <mxGeometry x="350" y="470" width="150" height="130" as="geometry" />
        </mxCell>
        <mxCell id="9F8LSmwIcYbkRrsHRq0f-8" value="" style="endArrow=none;html=1;rounded=0;exitX=1;exitY=0.5;exitDx=0;exitDy=0;" edge="1" parent="1" source="9F8LSmwIcYbkRrsHRq0f-7">
          <mxGeometry width="50" height="50" relative="1" as="geometry">
            <mxPoint x="400" y="520" as="sourcePoint" />
            <mxPoint x="650" y="440" as="targetPoint" />
          </mxGeometry>
        </mxCell>
        <mxCell id="9F8LSmwIcYbkRrsHRq0f-9" value="" style="endArrow=none;html=1;rounded=0;exitX=0;exitY=0.5;exitDx=0;exitDy=0;" edge="1" parent="1" source="9F8LSmwIcYbkRrsHRq0f-7">
          <mxGeometry width="50" height="50" relative="1" as="geometry">
            <mxPoint x="400" y="520" as="sourcePoint" />
            <mxPoint x="210" y="440" as="targetPoint" />
            <Array as="points" />
          </mxGeometry>
        </mxCell>
        <mxCell id="9F8LSmwIcYbkRrsHRq0f-10" value="&lt;font style=&quot;font-size: 18px;&quot;&gt;Atributos: en empleados existen: personal directivo&amp;nbsp;&lt;br&gt;personal del ventas y personal de producciÃ³n&lt;br&gt;&lt;/font&gt;&lt;span id=&quot;docs-internal-guid-f0c3df7c-7fff-83de-4a37-6b6844309950&quot;&gt;&lt;/span&gt;&lt;span id=&quot;docs-internal-guid-f0c3df7c-7fff-83de-4a37-6b6844309950&quot;&gt;&lt;/span&gt;" style="text;html=1;align=center;verticalAlign=middle;resizable=0;points=[];autosize=1;strokeColor=none;fillColor=none;" vertex="1" parent="1">
          <mxGeometry x="130" y="630" width="440" height="60" as="geometry" />
        </mxCell>
        <mxCell id="9F8LSmwIcYbkRrsHRq0f-12" value="&lt;font style=&quot;font-size: 18px;&quot;&gt;(1:1)&lt;/font&gt;" style="text;html=1;align=center;verticalAlign=middle;resizable=0;points=[];autosize=1;strokeColor=none;fillColor=none;" vertex="1" parent="1">
          <mxGeometry x="635" y="440" width="60" height="40" as="geometry" />
        </mxCell>
        <mxCell id="9F8LSmwIcYbkRrsHRq0f-13" value="&lt;font style=&quot;font-size: 18px;&quot;&gt;(0:N)&lt;/font&gt;" style="text;html=1;align=center;verticalAlign=middle;resizable=0;points=[];autosize=1;strokeColor=none;fillColor=none;" vertex="1" parent="1">
          <mxGeometry x="550" y="333" width="60" height="40" as="geometry" />
        </mxCell>
        <mxCell id="9F8LSmwIcYbkRrsHRq0f-14" value="&lt;font style=&quot;font-size: 18px;&quot;&gt;(0:1)&lt;/font&gt;" style="text;html=1;align=center;verticalAlign=middle;resizable=0;points=[];autosize=1;strokeColor=none;fillColor=none;" vertex="1" parent="1">
          <mxGeometry x="245" y="333" width="60" height="40" as="geometry" />
        </mxCell>
        <mxCell id="9F8LSmwIcYbkRrsHRq0f-15" value="&lt;font style=&quot;font-size: 18px;&quot;&gt;1:N&lt;/font&gt;" style="text;html=1;align=center;verticalAlign=middle;resizable=0;points=[];autosize=1;strokeColor=none;fillColor=none;" vertex="1" parent="1">
          <mxGeometry x="405" y="293" width="50" height="40" as="geometry" />
        </mxCell>
        <mxCell id="9F8LSmwIcYbkRrsHRq0f-16" value="&lt;font style=&quot;font-size: 18px;&quot;&gt;(0:1)&lt;/font&gt;" style="text;html=1;align=center;verticalAlign=middle;resizable=0;points=[];autosize=1;strokeColor=none;fillColor=none;" vertex="1" parent="1">
          <mxGeometry x="175" y="445" width="60" height="40" as="geometry" />
        </mxCell>
        <mxCell id="9F8LSmwIcYbkRrsHRq0f-17" value="&lt;font style=&quot;font-size: 18px;&quot;&gt;1:1&lt;/font&gt;" style="text;html=1;align=center;verticalAlign=middle;resizable=0;points=[];autosize=1;strokeColor=none;fillColor=none;" vertex="1" parent="1">
          <mxGeometry x="395" y="593" width="50" height="40" as="geometry" />
        </mxCell>
        <mxCell id="9F8LSmwIcYbkRrsHRq0f-18" value="&lt;font style=&quot;font-size: 24px;&quot;&gt;Manda&lt;/font&gt;" style="rhombus;whiteSpace=wrap;html=1;" vertex="1" parent="1">
          <mxGeometry x="645" y="503" width="150" height="130" as="geometry" />
        </mxCell>
        <mxCell id="9F8LSmwIcYbkRrsHRq0f-19" value="" style="endArrow=none;html=1;rounded=0;exitX=0.5;exitY=0;exitDx=0;exitDy=0;entryX=0.5;entryY=1;entryDx=0;entryDy=0;" edge="1" parent="1" source="9F8LSmwIcYbkRrsHRq0f-18" target="9F8LSmwIcYbkRrsHRq0f-1">
          <mxGeometry width="50" height="50" relative="1" as="geometry">
            <mxPoint x="510" y="545" as="sourcePoint" />
            <mxPoint x="660" y="450" as="targetPoint" />
          </mxGeometry>
        </mxCell>
        <mxCell id="9F8LSmwIcYbkRrsHRq0f-20" value="" style="endArrow=none;html=1;rounded=0;exitX=1;exitY=0.5;exitDx=0;exitDy=0;" edge="1" parent="1" source="9F8LSmwIcYbkRrsHRq0f-18">
          <mxGeometry width="50" height="50" relative="1" as="geometry">
            <mxPoint x="520" y="555" as="sourcePoint" />
            <mxPoint x="800" y="440" as="targetPoint" />
          </mxGeometry>
        </mxCell>
        <mxCell id="9F8LSmwIcYbkRrsHRq0f-21" value="&lt;font style=&quot;font-size: 18px;&quot;&gt;(0:1)&lt;/font&gt;" style="text;html=1;align=center;verticalAlign=middle;resizable=0;points=[];autosize=1;strokeColor=none;fillColor=none;" vertex="1" parent="1">
          <mxGeometry x="660" y="480" width="60" height="40" as="geometry" />
        </mxCell>
        <mxCell id="9F8LSmwIcYbkRrsHRq0f-22" value="&lt;font style=&quot;font-size: 18px;&quot;&gt;Text&lt;/font&gt;" style="text;html=1;align=center;verticalAlign=middle;resizable=0;points=[];autosize=1;strokeColor=none;fillColor=none;" vertex="1" parent="1">
          <mxGeometry x="790" y="520" width="60" height="40" as="geometry" />
        </mxCell>
        <mxCell id="9F8LSmwIcYbkRrsHRq0f-23" value="&lt;font style=&quot;font-size: 18px;&quot;&gt;0:N&lt;/font&gt;" style="text;html=1;align=center;verticalAlign=middle;resizable=0;points=[];autosize=1;strokeColor=none;fillColor=none;" vertex="1" parent="1">
          <mxGeometry x="800" y="455" width="50" height="40" as="geometry" />
        </mxCell>
      </root>
    </mxGraphModel>
  </diagram>
</mxfile>
